<?xml version="1.0" standalone="no"?>
<!DOCTYPE svg PUBLIC "-//W3C//DTD SVG 20010904//EN"
 "http://www.w3.org/TR/2001/REC-SVG-20010904/DTD/svg10.dtd">
<svg version="1.0" xmlns="http://www.w3.org/2000/svg"
 width="300.000000pt" height="300.000000pt" viewBox="0 0 300.000000 300.000000"
 preserveAspectRatio="xMidYMid meet">
<metadata>
Created by potrace 1.10, written by Peter Selinger 2001-2011
</metadata>
<g transform="translate(0.000000,300.000000) scale(0.100000,-0.100000)"
fill="#000000" stroke="none">
<path d="M1626 2793 c-10 -71 -20 -136 -22 -145 -3 -11 0 -18 9 -18 10 0 18
32 31 123 9 67 20 132 23 145 3 15 1 22 -9 22 -11 0 -19 -30 -32 -127z"/>
<path d="M1035 2851 c-9 -15 87 -271 103 -271 6 0 12 2 12 4 0 6 -100 270
-104 274 -2 2 -7 -1 -11 -7z"/>
<path d="M2138 2570 c-89 -108 -97 -120 -76 -119 7 0 42 36 78 80 97 120 101
127 91 133 -5 4 -47 -39 -93 -94z"/>
<path d="M530 2462 c0 -16 219 -181 226 -171 7 13 15 6 -108 102 -92 73 -118
88 -118 69z"/>
<path d="M1311 2420 c-318 -86 -521 -337 -546 -675 -4 -49 -16 -116 -27 -149
-37 -114 -157 -331 -292 -531 l-61 -90 -66 -385 c-37 -212 -66 -386 -64 -388
1 -1 170 68 376 154 l374 156 115 118 c149 153 277 269 359 325 51 34 87 49
156 65 146 34 244 88 351 195 78 78 98 104 137 185 61 128 81 223 75 359 -15
303 -202 548 -493 647 -111 37 -285 44 -394 14z m344 -36 c233 -59 428 -255
491 -494 22 -86 23 -245 1 -330 -59 -228 -236 -418 -456 -489 -35 -12 -66 -19
-68 -17 -2 1 -8 104 -15 227 -6 123 -11 225 -12 226 -1 0 -63 -11 -138 -26
-137 -26 -138 -27 -138 -6 0 11 7 99 15 195 8 96 15 185 15 196 0 23 2 23
-458 -89 l-93 -23 7 50 c35 259 207 474 449 562 124 45 267 51 400 18z m-328
-537 c-3 -8 -11 -99 -18 -203 -7 -104 -13 -190 -14 -191 -1 -2 -55 -14 -120
-27 -64 -13 -120 -28 -124 -34 -34 -54 -387 -488 -390 -479 -26 83 -77 122
-150 115 l-47 -5 88 141 c149 238 248 451 248 535 0 27 4 31 38 40 103 26 478
118 486 120 4 0 6 -5 3 -12z m246 -409 c4 -24 9 -113 12 -198 4 -85 9 -163 11
-172 4 -13 -5 -20 -34 -27 -80 -22 -244 -155 -438 -357 -106 -111 -110 -114
-106 -81 4 36 -15 84 -43 107 -9 7 -36 18 -59 24 l-44 11 213 244 c230 263
225 254 225 377 l0 61 123 26 c67 14 125 25 128 26 4 1 9 -18 12 -41z m-288
-105 l-8 -87 -215 -247 -215 -247 -23 47 c-26 51 -68 82 -114 83 -27 1 -29 3
-17 17 8 9 92 115 187 236 95 121 178 226 184 232 10 12 164 50 209 52 17 1
18 -5 12 -86z m-720 -349 c55 -26 74 -83 49 -149 -6 -16 -5 -16 24 -1 51 26
89 21 128 -18 39 -39 45 -86 19 -136 -19 -37 -12 -38 27 -5 35 29 101 34 135
10 47 -33 50 -109 7 -146 -21 -17 -518 -229 -539 -229 -7 0 -31 20 -54 45 -31
33 -40 51 -36 67 3 13 23 128 45 257 23 128 47 246 55 262 16 30 58 58 88 59
11 0 34 -7 52 -16z m-209 -652 l40 -37 -52 -21 -52 -20 9 30 c5 17 9 43 9 58
0 16 2 28 3 28 2 0 22 -17 43 -38z"/>
<path d="M1688 1825 c-81 -45 -75 -180 8 -220 71 -33 148 -2 173 71 17 49 10
84 -27 125 -23 26 -38 32 -78 35 -32 3 -58 -1 -76 -11z m112 -20 c37 -19 50
-43 50 -92 0 -68 -63 -114 -126 -93 -69 23 -95 100 -53 154 36 46 80 56 129
31z"/>
<path d="M2463 2132 c-62 -26 -113 -53 -113 -59 0 -7 2 -13 4 -13 20 0 245
104 240 111 -8 13 -7 13 -131 -39z"/>
<path d="M290 1891 c0 -14 19 -18 168 -37 118 -15 156 -15 140 1 -4 4 -276 45
-300 45 -4 0 -8 -4 -8 -9z"/>
<path d="M2390 1597 c0 -10 33 -18 123 -31 67 -10 132 -20 145 -23 15 -4 22
-1 22 9 0 11 -30 19 -127 32 -71 10 -136 20 -145 22 -11 3 -18 0 -18 -9z"/>
<path d="M2216 1152 c-13 -12 -2 -23 103 -101 109 -81 121 -89 121 -72 0 13
-217 180 -224 173z"/>
<path d="M1830 838 c0 -24 88 -242 99 -246 18 -6 14 10 -35 137 -42 107 -64
146 -64 109z"/>
</g>
</svg>
