<?xml version="1.0" encoding="UTF-8"?>
<svg enable-background="new 0 0 640.203 640.203" viewBox="0 0 640.203 640.203" xmlns="http://www.w3.org/2000/svg">
 <defs>
  <radialGradient id="a" cx="318.09" cy="321.43" r="446" gradientUnits="userSpaceOnUse">
   <stop stop-color="#57b6dd" offset=".022"/>
   <stop stop-color="#e5f4f6" offset=".1703"/>
   <stop stop-color="#aedee4" offset=".2912"/>
   <stop stop-color="#e2f3f5" offset=".456"/>
   <stop stop-color="#57b6dd" offset=".6484"/>
   <stop stop-color="#aedee4" offset=".9505"/>
  </radialGradient>
 </defs>
 <path d="m320.102,187.477-17.765,57.431 17.765,57.43 17.764-57.43-17.764-57.431zm28.626-49.583-24.992-14.43-.336-11.374 3.026-8.51 17.05,8.104-8.104-17.05 17.785-6.324-17.785-6.324 8.104-17.05-17.05,8.104-4.552-12.802-1.773-60.238-1.773,60.243-4.551,12.797-17.05-8.104 8.104,17.049-17.785,6.325 17.785,6.324-8.104,17.05 17.049-8.104 3.026,8.508-.335,11.376-24.993,14.429v33.056l28.627,16.527 28.625-16.527v-33.055zm-57.252,364.416 24.992,14.429 .335,11.377-3.025,8.507-17.05-8.104 8.104,17.049-17.785,6.324 17.785,6.324-8.104,17.05 17.05-8.104 4.551,12.799 1.773,60.242 1.773-60.24 4.552-12.801 17.05,8.104-8.104-17.049 17.785-6.325-17.785-6.324 8.104-17.049-17.049,8.104-3.026-8.51 .334-11.373 24.993-14.43v-33.057l-28.626-16.527-28.626,16.527v33.057zm-103.999-182.208 57.431,17.765 57.43-17.765-57.43-17.764-57.431,17.764zm-49.583-28.626-14.429,24.992-11.376.335-8.508-3.025 8.104-17.05-17.049,8.104-6.325-17.785-6.324,17.785-17.049-8.104 8.104,17.05-12.8,4.552-60.242,1.773 60.243,1.772 12.797,4.552-8.104,17.05 17.049-8.104 6.325,17.785 6.325-17.785 17.049,8.104-8.104-17.049 8.508-3.025 11.376.335 14.429,24.992h33.056l16.527-28.627-16.527-28.626h-33.055zm199.972,28.626 57.43,17.764 57.43-17.764-57.43-17.765-57.43,17.765zm302.337-.001-60.244-1.772-12.797-4.552 8.104-17.05-17.049,8.104-6.325-17.785-6.324,17.785-17.049-8.104 8.104,17.049-8.507,3.025-11.377-.335-14.429-24.992h-33.057l-16.527,28.627 16.527,28.626h33.057l14.43-24.992 11.375-.335 8.508,3.025-8.104,17.05 17.049-8.104 6.324,17.785 6.324-17.785 17.05,8.104-8.104-17.05 12.801-4.552 60.24-1.772zm-413.881-93.78 28.048,53.171 53.17,28.048-28.048-53.17-53.17-28.049zm-14.819-55.302-27.875,7.47-8.28-7.807-3.877-8.156 17.787-6.325-17.787-6.325 8.104-17.048-17.048,8.104-6.325-17.786-6.326,17.786-12.271-5.833-43.849-41.343 41.344,43.851 5.831,12.269-17.786,6.326 17.786,6.324-8.104,17.049 17.048-8.104 6.325,17.786 6.325-17.786 8.156,3.877 7.807,8.281-7.47,27.875 23.374,23.374 31.929-8.556 8.555-31.929-23.373-23.374zm202.378,242.862-28.047-53.171-53.171-28.048 28.048,53.17 53.17,28.049zm14.819,55.303 27.876-7.47 8.28,7.808 3.877,8.154-17.786,6.326 17.786,6.324-8.104,17.049 17.048-8.104 6.325,17.787 6.326-17.786 12.269,5.832 43.852,41.344-41.344-43.851-5.832-12.271 17.786-6.325-17.786-6.325 8.104-17.048-17.048,8.104-6.325-17.785-6.325,17.785-8.158-3.878-7.805-8.278 7.47-27.876-23.375-23.375-31.929,8.557-8.555,31.928 23.373,23.374zm-202.378-55.302 53.171-28.049 28.047-53.171-53.17,28.049-28.048,53.171zm-55.302,14.818 7.469,27.876-7.807,8.28-8.155,3.877-6.326-17.787-6.325,17.787-17.048-8.104 8.104,17.048-17.786,6.325 17.786,6.326-5.833,12.27-41.342,43.851 43.852-41.345 12.268-5.831 6.326,17.786 6.324-17.786 17.048,8.104-8.104-17.048 17.786-6.326-17.786-6.324 3.877-8.156 8.279-7.807 27.876,7.47 23.374-23.374-8.556-31.929-31.928-8.556-23.373,23.373zm242.861-202.378-53.17,28.047-28.048,53.171 53.17-28.049 28.048-53.169zm55.303-14.82-7.469-27.875 7.808-8.281 8.154-3.877 6.326,17.786 6.324-17.786 17.048,8.104-8.104-17.048 17.786-6.325-17.786-6.326 5.833-12.27 41.343-43.851-43.852,41.347-12.268,5.831-6.326-17.786-6.324,17.786-17.049-8.104 8.104,17.048-17.785,6.325 17.785,6.325-3.876,8.155-8.281,7.808-27.875-7.469-23.375,23.374 8.556,31.93 31.929,8.555 23.374-23.376zm-84.645,83.783 69.812-18.993 19.63-16.289 38.29-15.104 20.354-12.219-23.032,5.754-37.49,16.28-25.699,2.388-60.632,35.1-52.854,22.952-.255-.256v-7.358h-6.491l21.763-50.115 35.938-62.802 2.362-25.398 16.396-37.756 5.753-23.032-12.218,20.354-14.998,38.02-16.483,19.862-18.051,67.687-20.978,53.179h-.351l-5.203-5.203-4.842,4.842-19.981-50.655-18.993-69.812-16.289-19.629-15.104-38.291-12.218-20.354 5.753,23.032 16.28,37.49 2.389,25.701 35.1,60.631 22.689,52.25h-7.346v7.354l-50.129-21.768-62.793-35.934-25.398-2.362-37.756-16.395-23.031-5.753 20.354,12.218 38.021,14.998 19.862,16.483 67.695,18.054 52.81,20.831-4.836,4.836 5.203,5.203v.354l-51.019,20.125-69.815,18.994-19.628,16.289-38.292,15.104-20.354,12.217 23.032-5.752 37.49-16.28 25.701-2.39 60.628-35.099 52.257-22.692v6.487h7.357l.254.255-22.03,50.733-35.935,62.795-2.362,25.397-16.395,37.757-5.754,23.031 12.219-20.354 14.998-38.021 16.483-19.862 18.053-67.689 21.077-53.435 4.596,4.597-17.763,57.43 17.764,57.43 17.765-57.43-17.764-57.43 5.203-5.204h.007l20.466,51.884 18.992,69.811 16.289,19.63 15.104,38.29 12.219,20.354-5.754-23.032-16.279-37.489-2.389-25.7-35.102-60.634-23.064-53.113h6.868v-6.858l50.983,22.139 62.793,35.935 25.398,2.362 37.756,16.396 23.032,5.753-20.354-12.218-38.02-14.997-19.862-16.484-67.694-18.054-54.032-21.314v-.017l5.202-5.202-4.594-4.594 51.266-20.226z" fill="url(#a)"/>
</svg>
